<svg width="26" height="26" viewBox="0 0 26 26" fill="none" xmlns="http://www.w3.org/2000/svg">
<rect width="26" height="26" rx="12.5" fill="#DCDAFF"/>
<path d="M5.64645 12.6464C5.45118 12.8417 5.45118 13.1583 5.64645 13.3536L8.82843 16.5355C9.02369 16.7308 9.34027 16.7308 9.53553 16.5355C9.7308 16.3403 9.7308 16.0237 9.53553 15.8284L6.70711 13L9.53553 10.1716C9.7308 9.97631 9.7308 9.65973 9.53553 9.46447C9.34027 9.2692 9.02369 9.2692 8.82843 9.46447L5.64645 12.6464ZM20 13.5C20.2761 13.5 20.5 13.2761 20.5 13C20.5 12.7239 20.2761 12.5 20 12.5V13.5ZM6 13V13.5H20V13V12.5H6V13Z" fill="#6761CD"/>
</svg>
