<svg width="102" height="102" viewBox="0 0 102 102" fill="none" xmlns="http://www.w3.org/2000/svg">
<path d="M51.0039 31C54.0717 31.0009 57.0982 31.7074 59.8494 33.0648C62.6005 34.4223 65.0024 36.3943 66.8695 38.8284C68.7365 41.2625 70.0185 44.0934 70.6164 47.1021C71.2144 50.1108 71.1121 53.2168 70.3176 56.1797C69.523 59.1426 68.0576 61.883 66.0345 64.189C64.0114 66.495 61.4849 68.3048 58.6504 69.4784C55.816 70.652 52.7495 71.1579 49.6883 70.9571C46.627 70.7562 43.653 69.8539 40.9962 68.32L33.1955 70.9133C32.9021 71.0107 32.5874 71.0245 32.2865 70.9532C31.9857 70.882 31.7106 70.7285 31.492 70.5099C31.2734 70.2914 31.1199 70.0163 31.0487 69.7155C30.9775 69.4147 30.9913 69.1001 31.0886 68.8067L33.6855 61.01C31.9277 57.9696 31.0014 54.5201 31 51.0082C30.9986 47.4963 31.922 44.046 33.6773 41.0042C35.4327 37.9624 37.9582 35.4364 40.9997 33.6802C44.0413 31.9241 47.4916 30.9997 51.0039 31ZM51.0039 34.3333C48.0202 34.3327 45.091 35.1328 42.5221 36.6503C39.9532 38.1678 37.8387 40.3469 36.3994 42.9603C34.9601 45.5736 34.2488 48.5254 34.3396 51.5074C34.4305 54.4894 35.3202 57.3924 36.9158 59.9133C37.0489 60.122 37.1338 60.3578 37.1643 60.6034C37.1949 60.849 37.1704 61.0984 37.0925 61.3333L35.3024 66.7L40.6729 64.9133C40.9076 64.835 41.1568 64.8099 41.4025 64.8399C41.6481 64.8699 41.884 64.9542 42.093 65.0867C44.2778 66.468 46.754 67.3224 49.3258 67.5822C51.8976 67.8421 54.4947 67.5002 56.9116 66.5837C59.3286 65.6673 61.4993 64.2012 63.2521 62.3016C65.005 60.4019 66.2919 58.1206 67.0112 55.638C67.7306 53.1554 67.8626 50.5396 67.3969 47.9972C66.9311 45.4548 65.8804 43.0555 64.3278 40.9891C62.7751 38.9226 60.7631 37.2455 58.4506 36.0904C56.1382 34.9352 53.5888 34.3337 51.0039 34.3333ZM44.1032 41.01C44.4332 41.01 44.7599 41.01 45.0433 41.0233C45.3433 41.0433 45.75 40.8967 46.1534 41.93C46.5634 42.9933 47.5469 45.61 47.6702 45.8733C47.7936 46.1367 47.8769 46.4467 47.7135 46.8C47.5469 47.1567 47.4635 47.3767 47.2202 47.68C46.9735 47.9933 46.7034 48.3767 46.4801 48.6133C46.2334 48.8767 45.98 49.16 46.2667 49.6933C46.5501 50.22 47.5402 51.96 49.0037 53.3633C50.8839 55.1733 52.4707 55.7367 52.9641 56C53.4574 56.2633 53.7441 56.2133 54.0275 55.8667C54.3142 55.5167 55.2543 54.32 55.5843 53.7867C55.911 53.26 56.241 53.3433 56.6911 53.5233C57.1411 53.7 59.5647 54.98 60.0547 55.2433C60.5481 55.5133 60.8781 55.6467 60.9982 55.87C61.1248 56.09 61.1248 57.1533 60.7148 58.3867C60.3048 59.63 58.3412 60.76 57.3945 60.91C56.3583 61.098 55.2916 61.0247 54.2908 60.6967C53.3371 60.3775 52.4022 60.0047 51.4906 59.58C46.5501 57.28 43.3231 51.9267 43.0798 51.58C42.8331 51.2267 41.0696 48.7033 41.0696 46.0933C41.0696 43.4833 42.3364 42.2033 42.7897 41.6767C43.2398 41.1433 43.7765 41.01 44.1032 41.01Z" fill="white"/>
<circle cx="51" cy="51" r="49.5" stroke="white" stroke-width="3"/>
</svg>
