<svg width="102" height="102" viewBox="0 0 102 102" fill="none" xmlns="http://www.w3.org/2000/svg">
<path d="M19 36.5138C19 34.2609 20.5415 33.3715 22.4387 33.253L31.2727 33.3123C31.8063 33.3123 32.2806 33.668 32.4585 34.2016C34.4743 40.7233 36.9644 44.7549 39.9289 49.3202C40.1067 49.6759 40.4032 49.8538 40.6996 49.8538C40.9368 49.8538 41.1739 49.7352 41.3518 49.4387L41.5296 48.7866L41.5889 38.5296C41.5889 37.0474 40.8775 36.8103 39.2174 36.5731C38.5652 36.4545 38.1502 35.8617 38.1502 35.2688C38.1502 35.1502 38.1502 35.0316 38.2095 34.913C39.0395 32.3636 41.6482 31.0593 45.3241 31.0593L48.6443 31C51.3715 31 53.8617 32.1858 53.8617 35.6838V49.1423C54.0988 49.3202 54.336 49.4387 54.6324 49.4387C55.1067 49.4387 55.6996 49.1423 56.1739 48.3715C59.2569 44.0435 62.7549 38.8854 63.2293 36.1581C63.2293 36.0395 63.2885 35.9802 63.3478 35.8617C64 34.5573 65.6601 33.668 66.3715 33.4308C66.4901 33.3715 66.668 33.3123 66.9051 33.3123H76.0949L76.6877 33.3715C77.5771 33.3715 78.2293 33.9644 78.5257 34.498C79.0593 35.3281 78.9407 36.2174 79 36.5731V36.9881C78.1107 42.3834 71.9447 48.4308 69.336 52.3439C68.9802 52.8182 68.8024 53.2332 68.8024 53.6482C68.8024 54.004 68.9802 54.3597 69.2767 54.7154L77.9328 65.6245C78.4071 66.2767 78.6443 67.0474 78.6443 67.6996C78.6443 69.6561 76.8063 70.7826 75.0277 70.9605L74.0198 71.0198H65.0079C64.83 71.0198 64.7115 71.079 64.5336 71.079C63.5257 71.079 62.6957 70.5455 62.1028 69.9526C60.2055 67.6403 58.3676 65.2688 56.5296 62.9565C56.1739 62.4822 56.0553 62.4229 55.6996 62.1858C55.2846 63.9051 54.9289 65.6838 54.5138 67.4624L54.336 68.4704C54.0395 69.5375 53.2688 70.664 51.8459 70.9605L51.0158 71.0198H45.2055C34.9486 71.0198 25.7589 56.4348 19.2964 38.2332C19.1186 37.7589 19 37.1067 19 36.5138ZM54.6324 51.8696C53.0909 51.8696 51.3715 50.9802 51.3715 49.3202V35.6838C51.3715 34.083 50.6601 33.4901 48.7036 33.4901L45.3241 33.6087C43.4269 33.6087 42.3597 33.9051 41.4704 34.498C42.834 35.1502 44.0791 36.0395 44.0791 38.5296V48.9644C43.9012 51.0395 42.1818 52.4032 40.5217 52.4032C39.3953 52.4032 38.3874 51.751 37.7945 50.6838C35.1265 46.6522 32.8735 42.8577 30.917 37.4032L30.3834 35.8617L22.498 35.8024C21.4308 35.8024 21.5494 35.8617 21.5494 36.3953C21.5494 36.751 21.6087 37.2253 21.668 37.5217L22.913 40.8419C29.3755 57.5613 37.498 68.5296 45.2055 68.5296H51.1344C51.9644 68.5296 51.9051 67.5217 52.083 66.9288L53.2095 61.7115C53.4466 61.1779 53.6245 60.7036 54.0395 60.2885C54.5138 59.8142 55.0474 59.6364 55.581 59.6364C56.7075 59.6364 57.7747 60.5257 58.4862 61.3557L63.5257 67.7589C63.9407 68.4111 64.2964 68.5296 64.5336 68.5296H74.3162C75.2648 68.5296 76.0949 68.2332 76.0949 67.6403C76.0949 67.4624 76.0356 67.2253 75.917 67.0474L67.3202 56.3162C66.6087 55.4269 66.3123 54.5375 66.3123 53.6482C66.3123 52.6996 66.668 51.751 67.2609 50.9209C69.751 47.1858 75.087 41.8498 76.332 37.4625L76.5099 36.6917C76.4506 36.3953 76.4506 36.1581 76.3913 35.8617H67.083C66.4901 36.0988 66.0158 36.4545 65.6601 36.9289L65.3043 38.0553C63.9407 41.8498 60.2055 47.0672 57.5376 50.6838C56.6482 51.5138 55.6403 51.8696 54.6324 51.8696Z" fill="white" stroke="white" stroke-width="0.834156"/>
<circle cx="51" cy="51" r="49.5" stroke="white" stroke-width="3"/>
</svg>
