<svg width="19" height="12" viewBox="0 0 19 12" fill="none" xmlns="http://www.w3.org/2000/svg">
<g clip-path="url(#clip0_362_3837)">
<mask id="mask0_362_3837" style="mask-type:luminance" maskUnits="userSpaceOnUse" x="0" y="0" width="19" height="11">
<path d="M19 0H0V10.8407H19V0Z" fill="white"/>
</mask>
<g mask="url(#mask0_362_3837)">
<path d="M18.8999 9.78957C18.8769 9.74013 18.8555 9.69879 18.8355 9.66583C18.5056 9.07226 17.8758 8.34338 16.9461 7.47949L16.9261 7.45982L16.9163 7.44971L16.9065 7.44016H16.8966C16.4745 7.0377 16.2074 6.76737 16.0954 6.62859C15.8911 6.3652 15.8449 6.09805 15.957 5.82772C16.0365 5.62332 16.3332 5.19137 16.8474 4.53159C17.1179 4.18233 17.3321 3.90217 17.4905 3.69053C18.6314 2.17379 19.1258 1.20465 18.9743 0.782241L18.9148 0.683362C18.8751 0.623802 18.7728 0.569446 18.608 0.520007C18.4432 0.470567 18.2321 0.46276 17.975 0.495431L15.126 0.51567C15.0602 0.50902 14.9942 0.510754 14.928 0.520296C14.8621 0.530415 14.8192 0.540245 14.7994 0.550075C14.7793 0.560195 14.7633 0.56829 14.75 0.574651L14.7103 0.604431C14.6774 0.62409 14.6411 0.658786 14.6016 0.708515C14.562 0.757954 14.5287 0.81549 14.5027 0.881699C14.1927 1.67968 13.84 2.42156 13.4443 3.10765C13.2002 3.51648 12.9759 3.87122 12.7717 4.17104C12.5673 4.47145 12.3959 4.69234 12.2574 4.83371C12.1189 4.97539 11.9934 5.08959 11.8815 5.17489C11.7693 5.26105 11.6835 5.2969 11.6245 5.28389C11.5649 5.27088 11.5088 5.25758 11.4562 5.24399C11.364 5.18472 11.2894 5.10405 11.2336 5.0017C11.1775 4.89964 11.1396 4.77098 11.1197 4.61601C11.1 4.46104 11.0881 4.32747 11.0853 4.21529C11.0818 4.1031 11.0835 3.94496 11.0902 3.74054C11.0968 3.53614 11.1 3.39793 11.1 3.32508C11.1 3.07469 11.1049 2.80263 11.115 2.50889C11.1249 2.21543 11.1333 1.98297 11.1396 1.81152C11.1463 1.64036 11.1494 1.45879 11.1494 1.26739C11.1494 1.07657 11.1379 0.926225 11.1147 0.817225C11.0916 0.708515 11.0569 0.603274 11.011 0.500635C10.9647 0.398574 10.897 0.319356 10.808 0.263554C10.7189 0.207465 10.6085 0.16294 10.4767 0.12998C10.1268 0.0507601 9.68186 0.0082591 9.1412 0.00132015C7.91445 -0.0114013 7.1263 0.0678183 6.77676 0.238979C6.63826 0.311838 6.51278 0.410429 6.4009 0.535909C6.28206 0.681049 6.26558 0.760557 6.35145 0.77299C6.74725 0.832548 7.02742 0.974508 7.19222 1.19858L7.25178 1.31712C7.29775 1.40328 7.34401 1.55478 7.39027 1.77219C7.43652 1.98991 7.46602 2.23046 7.47932 2.49442C7.51228 2.97582 7.51228 3.38781 7.47932 3.731C7.44635 4.0742 7.41513 4.34106 7.38535 4.53188C7.35557 4.72327 7.31105 4.87796 7.25178 4.99678C7.19222 5.1159 7.1529 5.18847 7.13295 5.21478C7.113 5.2411 7.0968 5.25758 7.08352 5.26423C6.99764 5.2969 6.90888 5.31367 6.81636 5.31367C6.72385 5.31367 6.61195 5.26741 6.47982 5.17489C6.34798 5.08294 6.21094 4.95573 6.06927 4.79411C5.9273 4.63278 5.76772 4.40668 5.58932 4.1164C5.41123 3.82641 5.22647 3.48351 5.03537 3.0877L4.87721 2.80061C4.77834 2.61615 4.64303 2.34726 4.47157 1.99453C4.30013 1.6418 4.14833 1.30064 4.0165 0.97046C3.96359 0.832259 3.88465 0.72673 3.77913 0.653871L3.72969 0.62409C3.69673 0.597781 3.64382 0.569735 3.57124 0.540245C3.49838 0.510465 3.42293 0.48907 3.34371 0.475771L0.633179 0.495431C0.356199 0.495431 0.168269 0.558459 0.0693895 0.68365L0.0297797 0.74292C0.00983018 0.776169 0 0.829079 0 0.90136C0 0.974219 0.0199495 1.06298 0.0595593 1.16822C0.455368 2.09833 0.885584 2.99519 1.35049 3.8588C1.81569 4.72298 2.2193 5.4189 2.56249 5.94627C2.90539 6.4742 3.25494 6.97178 3.61114 7.44016C3.96734 7.90855 4.20298 8.20837 4.31835 8.3402C4.4337 8.47233 4.52419 8.57122 4.5904 8.63713L4.8376 8.87479C4.99576 9.03294 5.2285 9.2226 5.53497 9.44349C5.84173 9.66468 6.18116 9.88209 6.55383 10.096C6.92622 10.3106 7.36019 10.4849 7.8546 10.6205C8.34928 10.7558 8.83068 10.8102 9.29876 10.7836H10.4365C10.6675 10.7639 10.8421 10.6916 10.9606 10.5659L11.0003 10.5164C11.0266 10.4771 11.0514 10.4158 11.0746 10.3337C11.0974 10.2513 11.1093 10.1605 11.1093 10.0616C11.1023 9.77801 11.124 9.52214 11.1734 9.29489C11.2229 9.06734 11.279 8.8959 11.3417 8.78024C11.4044 8.66518 11.475 8.56775 11.5545 8.48853C11.6337 8.4093 11.6895 8.36189 11.7228 8.34512C11.7557 8.32893 11.7823 8.31736 11.802 8.31042C11.9601 8.25781 12.1463 8.30898 12.3609 8.46366C12.5751 8.61892 12.7764 8.80974 12.9642 9.03757C13.1522 9.26511 13.378 9.52041 13.642 9.80432C13.9056 10.0879 14.1364 10.2987 14.3344 10.4372L14.5325 10.5563C14.6643 10.6353 14.8357 10.7078 15.0469 10.774C15.2579 10.8397 15.4427 10.8564 15.6008 10.8235L18.1332 10.7836C18.3839 10.7836 18.5785 10.7425 18.7169 10.6598C18.8555 10.578 18.9378 10.4866 18.9642 10.3878C18.9905 10.2889 18.9921 10.1773 18.9691 10.0515C18.9459 9.92633 18.9229 9.83901 18.8999 9.78957Z" fill="#444444"/>
</g>
</g>
<defs>
<clipPath id="clip0_362_3837">
<rect width="19" height="11.4" fill="white"/>
</clipPath>
</defs>
</svg>
