<svg width="15" height="15" viewBox="0 0 15 15" fill="none" xmlns="http://www.w3.org/2000/svg">
<g clip-path="url(#clip0_362_3785)">
<g clip-path="url(#clip1_362_3785)">
<mask id="mask0_362_3785" style="mask-type:luminance" maskUnits="userSpaceOnUse" x="0" y="0" width="15" height="15">
<path d="M15 0H0V15H15V0Z" fill="white"/>
</mask>
<g mask="url(#mask0_362_3785)">
<path d="M12.8149 2.17985C11.4048 0.774814 9.52948 0.00074406 7.53153 0C3.41499 0 0.0642975 3.33413 0.0628022 7.43241C0.0623037 8.74246 0.40622 10.0212 1.05966 11.1483L0 15L3.95928 13.9665C5.05009 14.5588 6.27847 14.8708 7.52829 14.8713H7.53128C11.6476 14.8713 14.9983 11.5366 15 7.43862C15.0012 5.45222 14.2252 3.58488 12.8149 2.17985ZM7.53177 13.6158H7.52928C6.41529 13.6153 5.32273 13.3174 4.36974 12.7547L4.14295 12.6207L1.79335 13.2341L2.42038 10.9543L2.27284 10.7204C1.65155 9.73677 1.32333 8.60009 1.32383 7.43266C1.32508 4.02636 4.11005 1.25523 7.53402 1.25523C9.19205 1.25573 10.7506 1.89934 11.9227 3.06701C13.0948 4.23469 13.7397 5.7868 13.7392 7.43762C13.738 10.8444 10.9532 13.6158 7.53177 13.6158Z" fill="#444444"/>
<path d="M7.53216 13.6145H7.52967C6.41568 13.614 5.32312 13.3161 4.37013 12.7534L4.14334 12.6194L1.79374 13.2328L2.42077 10.953L2.27323 10.7191C1.65194 9.73545 1.32372 8.59877 1.32422 7.43134C1.32547 4.02504 4.11044 1.25391 7.53441 1.25391C9.19244 1.25441 10.751 1.89802 11.9231 3.06569C13.0952 4.23337 13.7401 5.78548 13.7396 7.4363C13.7384 10.8431 10.9536 13.6145 7.53216 13.6145Z" fill="#444444"/>
<path d="M10.9368 8.98867C10.7502 8.89567 9.83275 8.4465 9.66154 8.3845C9.49057 8.32249 9.36597 8.29149 9.24161 8.4775C9.11725 8.66352 8.75963 9.08168 8.65072 9.20569C8.54181 9.3297 8.43291 9.34508 8.24649 9.25207C8.05983 9.15906 7.45848 8.96313 6.74572 8.33018C6.19097 7.83761 5.8164 7.22947 5.70749 7.0437C5.59858 6.85769 5.69578 6.75724 5.78923 6.66473C5.87322 6.58139 5.9759 6.44771 6.0691 6.33932C6.16231 6.23094 6.19346 6.15331 6.25576 6.02955C6.31807 5.90554 6.28692 5.79715 6.24031 5.70415C6.19371 5.61114 5.82039 4.69694 5.66488 4.32515C5.51335 3.96304 5.35959 4.01215 5.24495 4.00645C5.13629 4.00099 5.01168 4 4.88732 4C4.76297 4 4.56085 4.04638 4.38964 4.23239C4.21868 4.41841 3.73645 4.86757 3.73645 5.78178C3.73645 6.69598 4.40509 7.57918 4.49855 7.70294C4.59176 7.82695 5.8144 9.70272 7.68651 10.5073C8.13185 10.6988 8.47926 10.8129 8.75041 10.8984C9.1975 11.0398 9.60422 11.02 9.92595 10.9721C10.2846 10.9188 11.03 10.5229 11.1855 10.0891C11.341 9.65535 11.341 9.28332 11.2944 9.20594C11.2478 9.12831 11.1235 9.08168 10.9368 8.98867Z" fill="#DCDAFF"/>
</g>
</g>
</g>
<defs>
<clipPath id="clip0_362_3785">
<rect width="15" height="15" fill="white"/>
</clipPath>
<clipPath id="clip1_362_3785">
<rect width="15" height="15" fill="white"/>
</clipPath>
</defs>
</svg>
