<svg width="24" height="24" viewBox="0 0 24 24" fill="none" xmlns="http://www.w3.org/2000/svg">
<path opacity="0.5" d="M9.60593 5.563C10.3719 5.563 10.5199 5.406 11.9999 5.406C13.4799 5.406 13.6279 5.563 14.3939 5.563C15.0319 5.563 16.9479 4 17.9049 4C18.8619 4 19.9799 4.563 19.9799 6.188V8.063C19.9779 8.555 19.7999 10.063 19.0999 9.66C20.2109 10.974 19.9799 12.582 19.9799 14C19.9799 17.906 14.7129 19 11.9999 19C9.28693 19 4.01993 17.906 4.01993 14C4.01993 12.582 3.78893 10.974 4.89993 9.66C4.19993 10.063 4.02193 8.555 4.01993 8.062V6.188C4.01993 4.563 5.13693 4 6.09493 4C7.05193 4 8.96793 5.563 9.60593 5.563Z" fill="#6761CD"/>
<path d="M9.01592 11.0635C8.52692 11.0635 8.20092 11.3805 8.03592 11.6465C7.86508 11.9329 7.77714 12.2611 7.78192 12.5945C7.78192 12.9265 7.86392 13.2645 8.03592 13.5415C8.20092 13.8075 8.52692 14.1255 9.01592 14.1255C9.50592 14.1255 9.83092 13.8075 9.99592 13.5415C10.1679 13.2635 10.2499 12.9265 10.2499 12.5945C10.2499 12.2615 10.1679 11.9245 9.99592 11.6465C9.83092 11.3805 9.50592 11.0635 9.01592 11.0635ZM14.0369 11.6465C14.2009 11.3805 14.5269 11.0625 15.0169 11.0625C15.5049 11.0625 15.8309 11.3805 15.9959 11.6465C16.1679 11.9245 16.2499 12.2615 16.2499 12.5945C16.2499 12.9275 16.1679 13.2645 15.9959 13.5415C15.8309 13.8075 15.5059 14.1255 15.0159 14.1255C14.5269 14.1255 14.2009 13.8075 14.0359 13.5415C13.8653 13.2554 13.7773 12.9276 13.7819 12.5945C13.7819 12.2615 13.8639 11.9245 14.0369 11.6465Z" fill="#6761CD"/>
<path fill-rule="evenodd" clip-rule="evenodd" d="M11.1779 14.0806C11.4474 13.9831 11.7323 13.9347 12.0189 13.9376C12.3109 13.9376 12.6089 13.9826 12.8609 14.0806C13.0108 14.1365 13.1491 14.2195 13.2689 14.3256C13.4029 14.4486 13.5759 14.6756 13.5759 15.0006C13.5744 15.1283 13.5463 15.2542 13.4934 15.3704C13.4406 15.4866 13.3641 15.5906 13.2689 15.6756C13.1491 15.7817 13.0108 15.8648 12.8609 15.9206C12.6079 16.0186 12.3109 16.0636 12.0189 16.0636C11.7289 16.0636 11.4309 16.0186 11.1789 15.9206C11.0283 15.865 10.8893 15.7819 10.7689 15.6756C10.6739 15.5905 10.5976 15.4865 10.5449 15.3703C10.4922 15.2541 10.4643 15.1282 10.4629 15.0006C10.4629 14.6756 10.6359 14.4486 10.7699 14.3256C10.8897 14.2195 11.028 14.1365 11.1779 14.0806Z" fill="#6761CD"/>
<path d="M17.863 13.375C17.863 13.1761 17.9421 12.9853 18.0827 12.8447C18.2234 12.704 18.4141 12.625 18.613 12.625C18.909 12.625 19.263 12.692 19.594 12.774C19.939 12.859 20.314 12.973 20.67 13.095C21.354 13.329 22.08 13.627 22.407 13.839C22.5687 13.9492 22.6809 14.1182 22.7197 14.3099C22.7586 14.5017 22.7209 14.701 22.6148 14.8654C22.5088 15.0298 22.3427 15.1462 22.152 15.1898C21.9613 15.2335 21.761 15.2009 21.594 15.099C21.437 14.998 20.872 14.749 20.185 14.514C19.8724 14.4063 19.5555 14.3115 19.235 14.23C19.032 14.1732 18.8235 14.138 18.613 14.125C18.4141 14.125 18.2234 14.046 18.0827 13.9053C17.9421 13.7647 17.863 13.5739 17.863 13.375ZM17.968 15.125C17.7691 15.125 17.5784 15.204 17.4377 15.3447C17.2971 15.4853 17.218 15.6761 17.218 15.875C17.218 16.0739 17.2971 16.2647 17.4377 16.4053C17.5784 16.546 17.7691 16.625 17.968 16.625C18.174 16.625 18.518 16.74 18.948 16.968C19.29 17.148 19.604 17.353 19.849 17.513L19.98 17.599C20.1471 17.7069 20.3502 17.7441 20.5447 17.7023C20.7392 17.6604 20.9091 17.5431 21.017 17.376C21.125 17.2089 21.1621 17.0058 21.1203 16.8113C21.0785 16.6168 20.9611 16.4469 20.794 16.339L20.681 16.265C20.3469 16.0415 20.0025 15.8336 19.649 15.642C19.192 15.4 18.569 15.125 17.968 15.125ZM3.81504 14.514C3.12804 14.749 2.56304 14.998 2.40704 15.099C2.23995 15.2069 2.03683 15.2441 1.84235 15.2023C1.64788 15.1604 1.47798 15.0431 1.37004 14.876C1.26209 14.7089 1.22495 14.5058 1.26677 14.3113C1.30859 14.1168 1.42595 13.9469 1.59304 13.839C1.92104 13.627 2.64604 13.329 3.33004 13.095C3.68704 12.973 4.06204 12.858 4.40704 12.774C4.73704 12.692 5.09104 12.625 5.38704 12.625C5.58595 12.625 5.77671 12.704 5.91737 12.8447C6.05802 12.9853 6.13704 13.1761 6.13704 13.375C6.13704 13.5739 6.05802 13.7647 5.91737 13.9053C5.77671 14.046 5.58595 14.125 5.38704 14.125C5.28004 14.125 5.07004 14.155 4.76504 14.23C4.47504 14.302 4.14404 14.402 3.81504 14.514ZM4.02004 17.599L4.15104 17.513C4.39704 17.353 4.71104 17.148 5.05204 16.968C5.48304 16.74 5.82704 16.625 6.03204 16.625C6.23095 16.625 6.42171 16.546 6.56237 16.4053C6.70302 16.2647 6.78204 16.0739 6.78204 15.875C6.78204 15.6761 6.70302 15.4853 6.56237 15.3447C6.42171 15.204 6.23095 15.125 6.03204 15.125C5.43204 15.125 4.80804 15.4 4.35204 15.642C3.94204 15.858 3.56204 16.107 3.31904 16.265L3.20604 16.339C3.03895 16.4469 2.92159 16.6168 2.87977 16.8113C2.83795 17.0058 2.87509 17.2089 2.98304 17.376C3.09098 17.5431 3.26088 17.6604 3.45535 17.7023C3.64983 17.7441 3.85295 17.7069 4.02004 17.599Z" fill="#6761CD"/>
</svg>
