<svg width="60" height="53" viewBox="0 0 60 53" fill="none" xmlns="http://www.w3.org/2000/svg">
<path fill-rule="evenodd" clip-rule="evenodd" d="M27.5447 2.31532C26.3072 3.58303 25.3116 4.6862 25.3322 4.76684C25.3528 4.84747 25.305 4.87349 25.2262 4.82486C25.0766 4.73251 22.6355 7.14875 22.6355 7.38903C22.6355 7.46462 22.6021 7.49323 22.5615 7.4525C22.503 7.39407 19.9813 9.84341 19.2765 10.6431C18.7954 11.1889 18.1199 11.71 17.9939 11.6324C17.914 11.583 17.861 11.3796 17.8762 11.1804C17.8913 10.9813 17.8946 9.91423 17.8833 8.80916L17.8627 6.80005H14.7944H11.7262V12.4905V18.1811L10.3966 19.4981C9.66527 20.2225 8.95971 20.9147 8.82838 21.0365C8.69706 21.1583 8.58974 21.3183 8.58974 21.3923C8.58974 21.4664 8.53356 21.4923 8.46497 21.4499C8.39638 21.4075 8.3196 21.4349 8.29424 21.5108C8.2206 21.7316 4.73698 25.1885 4.5882 25.1885C4.51402 25.1885 4.4877 25.2229 4.52983 25.265C4.57197 25.307 4.18973 25.7324 3.68054 26.2101C3.17135 26.6877 2.7662 27.0977 2.78039 27.121C2.79443 27.1445 2.4812 27.4764 2.08423 27.8587C1.68713 28.2412 1.36231 28.5277 1.36231 28.4954C1.36231 28.4631 1.19362 28.6406 0.987298 28.8897C0.780976 29.139 0.47415 29.4546 0.305465 29.5912C0.136643 29.7277 -0.000814567 29.9422 3.63385e-06 30.0679C0.000685467 30.1935 0.951707 31.246 2.11328 32.4068L4.22519 34.5174L6.34801 32.4068C7.51572 31.246 8.81598 29.943 9.23762 29.5113C9.65913 29.0795 10.0538 28.7757 10.1143 28.8362C10.175 28.8968 10.2403 34.3579 10.2596 40.9719L10.2943 52.9974L29.9063 52.9999C40.6929 53.0013 49.5438 52.9768 49.5752 52.9455C49.6064 52.9143 49.6371 47.4846 49.6432 40.8798C49.6494 34.2749 49.702 28.8415 49.7602 28.8057C49.8183 28.7697 50.6154 29.475 51.5315 30.3731C52.478 31.3008 53.2617 31.9656 53.3468 31.9132C53.4339 31.8593 53.4579 31.8831 53.4041 31.9701C53.3521 32.054 53.8226 32.6391 54.4785 33.3062L55.6454 34.4929L56.9853 33.1778C57.7224 32.4545 58.3086 31.8628 58.2881 31.8628C58.2676 31.8628 58.6444 31.4854 59.1255 31.0239C59.6064 30.5625 60 30.1378 60 30.0801C60 29.9196 55.4864 25.4609 55.324 25.4609C55.2457 25.4609 55.2137 25.429 55.2527 25.3901C55.2917 25.3511 52.4123 22.3936 48.8541 18.8179C45.296 15.2421 42.1754 12.0865 41.9194 11.8054C41.6634 11.5242 41.4541 11.3184 41.4541 11.348C41.4541 11.3775 41.1473 11.097 40.7723 10.7243C40.3973 10.3516 40.0905 10.028 40.0905 10.0051C40.0905 9.98207 39.593 9.48149 38.9849 8.89252C38.3769 8.30354 36.1226 6.05948 33.9755 3.90558C31.8284 1.75182 30.0094 -0.00570692 29.9332 1.39268e-05C29.8571 0.00573477 28.7822 1.04774 27.5447 2.31532ZM40.9302 18.9306C39.3486 19.5404 37.4994 20.4808 36.6614 21.1013C35.0088 22.3256 34.0445 24.3799 33.752 27.2997C33.5086 29.7304 32.8884 31.7348 32.0845 32.689C31.5637 33.3073 29.8853 34.1229 29.4579 33.9653C29.3478 33.9248 29.3029 33.9367 29.3583 33.992C29.4136 34.0473 29.1663 34.2194 28.8087 34.3742C28.161 34.6547 27.2399 35.1615 26.3011 35.7541C25.6926 36.1382 23.5901 37.989 23.5901 38.1406C23.5901 38.2013 23.4102 38.5171 23.1905 38.8424C22.9707 39.1676 22.6196 39.8603 22.4101 40.3815C22.0296 41.3283 22.0292 41.3331 22.0298 44.6325C22.0302 46.4492 22.0163 47.9356 21.9991 47.9356C21.9166 47.9356 21.2969 47.2713 20.9826 46.846C20.4632 46.1428 20.2282 45.6374 19.9851 44.7001C19.7853 43.93 19.7855 43.7721 19.9866 42.7991C20.2608 41.4722 21.0494 39.8051 22.196 38.1285C25.3577 33.5049 26.1425 31.741 26.0079 29.5607C25.9318 28.3285 25.755 27.7803 25.1024 26.7523C24.457 25.7356 23.2938 24.7619 22.09 24.2304C21.4337 23.9405 21.1443 23.8999 19.7718 23.9054C18.0697 23.912 17.4294 24.0743 16.4336 24.7514C15.5626 25.3435 15.4062 25.4963 15.0422 26.1101C14.3132 27.3399 15.2481 28.3546 16.5098 27.7028C16.7333 27.5874 16.9773 27.5306 17.0518 27.5767C17.1266 27.6228 17.1708 27.5794 17.1502 27.4801C17.1296 27.3809 17.3986 27.1579 17.7483 26.9847C19.3169 26.2071 21.0115 26.5427 22.2278 27.8721C23.6889 29.469 23.6259 31.1981 21.9951 34.2604C21.634 34.9383 21.3254 35.3693 21.2391 35.316C21.1581 35.266 21.1326 35.2896 21.1818 35.369C21.2819 35.5307 21.1424 35.8137 20.408 36.9406C20.1043 37.4064 19.8333 37.6897 19.744 37.6346C19.6511 37.5772 19.632 37.6041 19.6944 37.7047C19.7499 37.7946 19.6835 38.034 19.5465 38.2366C19.2165 38.7258 18.9858 39.105 18.8667 39.3544C18.813 39.4667 18.6368 39.7426 18.4751 39.9673C18.0539 40.5528 17.511 41.8957 17.3157 42.8352C17.0555 44.0867 17.3517 46.1106 18.0121 47.5951C18.735 49.2201 20.1993 50.764 21.6809 51.4635L22.431 51.8176L27.9197 51.8588L33.4085 51.9V51.5434C33.4085 50.8836 32.8094 50.1247 32.2835 50.118C31.9465 50.1138 31.9781 50.0282 32.5607 49.3671C34.1524 47.5609 34.3651 45.4649 33.1962 43.1077L32.7196 42.1467L33.1468 42.6234C34.5354 44.1726 34.9147 47.007 33.9792 48.8451C33.7437 49.308 33.4862 49.7265 33.407 49.7754C33.3201 49.8291 33.3966 49.9694 33.6002 50.1293C33.7857 50.2751 34.0569 50.7145 34.2031 51.1059L34.4686 51.8176L36.325 51.8555C37.4134 51.8777 38.1813 51.8407 38.1813 51.766C38.1813 51.6959 37.8667 51.356 37.482 51.0106L36.7829 50.3827L36.8538 48.9207C36.9319 47.3134 37.2908 45.7549 37.8399 44.6384C38.0349 44.2419 38.6825 43.1206 39.2789 42.1467C41.1163 39.1469 41.4564 38.2236 41.4514 36.2489C41.4472 34.5994 40.9605 32.3216 40.1985 30.3856C39.8574 29.519 39.9338 29.4224 40.9768 29.4013C43.0024 29.3602 43.4691 29.198 44.3083 28.2433C44.7974 27.6868 44.7976 27.686 44.4931 27.0823C44.3646 26.8274 44.2434 26.5574 44.224 26.4825C43.9828 25.552 43.383 23.6823 43.2408 23.4177C42.9329 22.8447 42.2476 22.2048 41.7753 22.0491C41.4158 21.9306 41.3093 21.8084 41.2389 21.4336C41.0937 20.661 41.4217 19.5703 42.0207 18.8328C42.2755 18.5192 41.9131 18.5518 40.9302 18.9306Z" fill="#444444"/>
</svg>
