<svg width="102" height="102" viewBox="0 0 102 102" fill="none" xmlns="http://www.w3.org/2000/svg">
<path fill-rule="evenodd" clip-rule="evenodd" d="M35.9066 55.2494C36.0044 55.2795 36.1041 55.3029 36.205 55.3195C36.8448 56.827 37.4809 58.336 38.1135 59.8465C39.2509 62.5644 40.3973 65.3638 40.6483 66.1688C40.9626 67.1592 41.2928 67.8331 41.6546 68.2944C41.8422 68.5295 42.0571 68.7376 42.3103 68.8958C42.4433 68.9765 42.5842 69.0431 42.7309 69.0948C43.4545 69.3662 44.1148 69.2531 44.5286 69.1152C44.7715 69.0326 45.0026 68.9186 45.216 68.776L45.2273 68.7715L51.6175 64.7872L59.0003 70.4448C59.1088 70.5277 59.2264 70.5978 59.3531 70.6551C60.2394 71.0395 61.0987 71.1751 61.9082 71.0666C62.7132 70.9535 63.3531 70.6166 63.8302 70.2345C64.3776 69.7924 64.8143 69.2288 65.1056 68.5883L65.1259 68.5386L65.1327 68.5205L65.1372 68.5114V68.5069L65.1395 68.5047C65.1766 68.4066 65.2068 68.3061 65.2299 68.2039L71.9683 34.2292C71.987 34.1201 71.9975 34.0098 72 33.8991C72 32.9042 71.6246 31.9567 70.745 31.3846C69.9898 30.8939 69.1509 30.8713 68.6195 30.912C68.0497 30.9573 67.5205 31.0974 67.1655 31.2105C66.9672 31.2746 66.7711 31.3455 66.5776 31.4231L66.5527 31.4344L28.7589 46.2589L28.7544 46.2611C28.6262 46.3074 28.5002 46.3595 28.3767 46.4171C28.0769 46.5517 27.7894 46.7121 27.5175 46.8965C27.0042 47.247 25.8216 48.2103 26.0228 49.8022C26.1811 51.0685 27.0494 51.8486 27.5808 52.2239C27.8702 52.4297 28.1461 52.5767 28.3496 52.6739C28.44 52.7191 28.6345 52.796 28.7182 52.8322L28.7408 52.839L35.9066 55.2494ZM67.8756 34.5548H67.871L67.8122 34.5797L29.9731 49.4246L29.9144 49.4472L29.8917 49.454C29.8225 49.4807 29.7545 49.5109 29.6882 49.5444C29.7515 49.5799 29.8164 49.6124 29.8827 49.6416L36.9874 52.034C37.1129 52.0805 37.2339 52.138 37.3492 52.2058L60.8138 38.469L60.8364 38.4577C60.928 38.4031 61.0215 38.3519 61.1168 38.3039C61.2796 38.2203 61.5396 38.0982 61.8336 38.0077C62.0371 37.9444 62.6409 37.7658 63.2921 37.976C63.638 38.084 63.9464 38.2875 64.1817 38.5632C64.4169 38.8388 64.5695 39.1754 64.6217 39.534C64.7059 39.8478 64.7082 40.1779 64.6285 40.4928C64.4702 41.1146 64.036 41.5985 63.6403 41.9693C63.3011 42.2859 58.9008 46.5279 54.5615 50.7157L48.653 56.414L47.6015 57.4315L60.8794 67.6115C61.0587 67.6863 61.2532 67.7174 61.4469 67.7019C61.5445 67.6886 61.6362 67.6478 61.7115 67.5843C61.803 67.5068 61.8816 67.4152 61.9444 67.313L61.9489 67.3107L68.4838 34.3581C68.2783 34.4087 68.0765 34.4737 67.8801 34.5526L67.8756 34.5548ZM48.7435 62.5803L46.0933 60.5497L45.4511 64.6312L48.7435 62.5803ZM43.6625 56.5202L46.2968 53.9764L52.2054 48.2736L54.4055 46.1526L39.6624 54.7836L39.7416 54.969C40.6714 57.1657 41.591 59.3666 42.5002 61.5718L43.1402 57.5016C43.1986 57.1243 43.3826 56.78 43.6625 56.5202Z" fill="white"/>
<circle cx="51" cy="51" r="49.5" stroke="white" stroke-width="3"/>
</svg>
