<svg width="13" height="13" viewBox="0 0 13 13" fill="none" xmlns="http://www.w3.org/2000/svg">
<g clip-path="url(#clip0_362_3769)">
<g clip-path="url(#clip1_362_3769)">
<path fill-rule="evenodd" clip-rule="evenodd" d="M6.49987 12.9997C10.0897 12.9997 12.9997 10.0897 12.9997 6.49987C12.9997 2.91009 10.0897 0 6.49987 0C2.91009 0 0 2.91009 0 6.49987C0 10.0897 2.91009 12.9997 6.49987 12.9997ZM7.00195 2.60156C7.00195 2.32542 6.7781 2.10156 6.50195 2.10156C6.22581 2.10156 6.00195 2.32542 6.00195 2.60156V7.47647C6.00195 7.67266 6.11669 7.85072 6.29534 7.93178C6.474 8.01285 6.68356 7.98195 6.83121 7.85276L9.43115 5.5778C9.63897 5.39596 9.66003 5.08008 9.47819 4.87226C9.29635 4.66444 8.98047 4.64338 8.77265 4.82522L7.00195 6.37458V2.60156Z" fill="#444444"/>
</g>
</g>
<defs>
<clipPath id="clip0_362_3769">
<rect width="13" height="13" fill="white"/>
</clipPath>
<clipPath id="clip1_362_3769">
<rect width="13" height="13" fill="white"/>
</clipPath>
</defs>
</svg>
