<svg width="16" height="11" viewBox="0 0 16 11" fill="none" xmlns="http://www.w3.org/2000/svg">
<g clip-path="url(#clip0_362_3777)">
<g clip-path="url(#clip1_362_3777)">
<path d="M15.9853 10.7958C15.9941 10.7674 16 10.7374 16 10.7058V0.29378C16 0.262031 15.9941 0.231849 15.9852 0.203236C15.9839 0.199316 15.9831 0.195396 15.9816 0.191476C15.9697 0.157963 15.9523 0.127782 15.9304 0.101324C15.9289 0.09956 15.9287 0.0974043 15.9272 0.0956404C15.9263 0.0946605 15.9252 0.0942683 15.9243 0.0932884C15.9009 0.0670265 15.8732 0.0458603 15.8422 0.0299855C15.8398 0.0288096 15.838 0.0272417 15.8356 0.0260658C15.8062 0.0121509 15.7743 0.0043117 15.7407 0.00195989C15.7374 0.0017639 15.7342 0.000979756 15.7309 0.000979756C15.7277 0.000783772 15.7249 0 15.7218 0H0.278592C0.275436 0 0.272467 0.000783772 0.269311 0.000979756C0.266342 0.00117574 0.263372 0.0017639 0.260402 0.00195989C0.226437 0.0043117 0.193956 0.012347 0.16426 0.0264579C0.162404 0.0272418 0.160919 0.0286136 0.159063 0.0293975C0.12751 0.0452723 0.0994838 0.0668304 0.0759121 0.0934843C0.074984 0.0944642 0.0738704 0.0946605 0.0729423 0.0956404C0.0714575 0.0972083 0.071272 0.0993641 0.0697871 0.101128C0.0478858 0.127586 0.0302535 0.157963 0.0183748 0.191476C0.01689 0.195396 0.0161475 0.199316 0.0148483 0.203432C0.00593932 0.232045 0 0.262227 0 0.293976V10.7062C0 10.7384 0.00612489 10.7689 0.0152195 10.7979C0.0165187 10.8019 0.0172612 10.8056 0.0185604 10.8095C0.0306247 10.8432 0.0484426 10.8736 0.0705295 10.9C0.0718287 10.9016 0.0722 10.9036 0.0734992 10.9051C0.0746128 10.9065 0.0760976 10.9073 0.0773969 10.9087C0.0864915 10.9187 0.0965141 10.9275 0.106908 10.9361C0.111548 10.9398 0.115631 10.9443 0.120457 10.9479C0.132707 10.9569 0.145885 10.9641 0.159434 10.9708C0.162775 10.9724 0.165744 10.9749 0.169085 10.9763C0.20268 10.9914 0.239615 11 0.278406 11H15.7214C15.7602 11 15.7971 10.9916 15.8307 10.9763C15.8359 10.9739 15.8408 10.9704 15.8458 10.9677C15.8573 10.9616 15.8688 10.9553 15.8794 10.9477C15.8849 10.9436 15.8899 10.9383 15.8953 10.9338C15.9048 10.9257 15.9141 10.9177 15.9222 10.9085C15.9237 10.9069 15.9254 10.9057 15.9269 10.9042C15.9284 10.9024 15.9287 10.9 15.9302 10.8983C15.9519 10.872 15.9694 10.8418 15.9813 10.8085C15.9831 10.8042 15.984 10.8001 15.9853 10.7958ZM0.556998 1.66667C0.556998 1.402 0.874765 1.267 1.06526 1.45074L5.01995 5.26503C5.14193 5.38268 5.14232 5.57794 5.02081 5.69607L1.06612 9.54079C0.875942 9.72568 0.556998 9.59093 0.556998 9.32569V1.66667ZM10.1789 5.24163C10.1672 5.25295 10.1544 5.26315 10.1409 5.27224C10.1282 5.28071 10.1159 5.28971 10.1054 5.30196C10.1053 5.30213 10.1055 5.30179 10.1054 5.30196C10.094 5.31564 10.0854 5.33188 10.0726 5.34422L8.20836 7.14226C8.09214 7.25436 7.90805 7.25435 7.79183 7.14226L1.53105 1.10369C1.33679 0.916322 1.46942 0.587756 1.73932 0.587756H14.2609C14.5308 0.587756 14.6634 0.916322 14.4691 1.10369L10.1789 5.24163ZM5.44744 6.08065C5.56354 5.96777 5.74827 5.96741 5.86482 6.07982L7.81226 7.95813C7.86553 8.00948 7.93272 8.03515 8.00009 8.03515C8.06747 8.03515 8.13466 8.00948 8.18774 7.95813L10.1095 6.10464C10.2257 5.99265 10.4095 5.99254 10.5258 6.1044L14.4663 9.89587C14.6609 10.0831 14.5283 10.412 14.2583 10.412H1.73102C1.4617 10.412 1.3288 10.0847 1.5219 9.89694L5.44744 6.08065ZM10.9549 5.7217C10.8324 5.60378 10.8322 5.40766 10.9547 5.2896L14.9349 1.45072C15.1254 1.26699 15.4432 1.40199 15.4432 1.66666V9.33547C15.4432 9.59996 15.1258 9.73503 14.9352 9.55164L10.9549 5.7217Z" fill="#DCDAFF"/>
<path d="M10.1796 5.23981C10.1679 5.25113 10.1551 5.26133 10.1416 5.27042C10.1289 5.27889 10.1166 5.28789 10.1061 5.30014C10.106 5.30031 10.1062 5.29997 10.1061 5.30014C10.0947 5.31382 10.0861 5.33006 10.0733 5.3424L8.2091 7.14044C8.09288 7.25254 7.90879 7.25253 7.79257 7.14044L1.53179 1.10187C1.33753 0.914504 1.47016 0.585938 1.74006 0.585938H14.2616C14.5315 0.585938 14.6641 0.914504 14.4698 1.10187L10.1796 5.23981Z" fill="#444444"/>
<path d="M10.9553 5.72283C10.8328 5.60491 10.8326 5.40879 10.9551 5.29073L14.9353 1.45185C15.1258 1.26812 15.4436 1.40312 15.4436 1.66779V9.3366C15.4436 9.60109 15.1262 9.73616 14.9356 9.55277L10.9553 5.72283Z" fill="#444444"/>
<path d="M5.44671 6.08099C5.56281 5.96811 5.74754 5.96775 5.86409 6.08016L7.81153 7.95847C7.8648 8.00982 7.93199 8.03549 7.99936 8.03549C8.06674 8.03549 8.13393 8.00982 8.18701 7.95847L10.1088 6.10498C10.225 5.99299 10.4088 5.99288 10.5251 6.10474L14.4656 9.89621C14.6602 10.0834 14.5276 10.4123 14.2576 10.4123H1.73029C1.46097 10.4123 1.32807 10.085 1.52117 9.89728L5.44671 6.08099Z" fill="#444444"/>
<path d="M0.556641 1.66779C0.556641 1.40312 0.874408 1.26812 1.0649 1.45186L5.01959 5.26615C5.14157 5.3838 5.14196 5.57906 5.02045 5.69719L1.06576 9.54191C0.875585 9.7268 0.556641 9.59205 0.556641 9.32681V1.66779Z" fill="#444444"/>
</g>
</g>
<defs>
<clipPath id="clip0_362_3777">
<rect width="16" height="11" fill="white"/>
</clipPath>
<clipPath id="clip1_362_3777">
<rect width="16" height="11" fill="white"/>
</clipPath>
</defs>
</svg>
